<svg t="1604390155825" class="icon" viewBox="0 0 1024 1024" version="1.1" xmlns="http://www.w3.org/2000/svg" p-id="3710" width="200" height="200"><path d="M0 0h1024v1024H0z" fill="#FAECBF" p-id="3711"></path><path d="M830.464 537.856c0 49.237333-25.6 95.914667-66.432 132.266667-1.578667-29.653333-6.016-62.677333-2.56-94.421334 7.978667-73.173333-16.512-158.293333-61.226667-211.754666A307.712 307.712 0 0 1 750.933333 395.349333h0.213334a54.144 54.144 0 0 0 7.68 6.101334c44.885333 37.461333 71.637333 84.949333 71.637333 136.405333zM270.122667 591.189333c2.773333 24.448-0.810667 53.973333-4.010667 83.797334-45.994667-37.418667-72.533333-84.650667-72.533333-137.130667 0-51.712 26.837333-99.114667 71.594666-136.277333a55.466667 55.466667 0 0 0 7.509334-6.016 310.229333 310.229333 0 0 1 58.410666-35.242667C276.736 424.832 260.266667 505.898667 270.122667 591.189333z" fill="#DB2D1B" p-id="3712"></path><path d="M731.605333 758.656c-55.978667 29.866667-146.005333 60.629333-116.394666-53.888a135.082667 135.082667 0 0 0 49.877333-70.016c54.229333-7.637333 72.96-78.421333 63.104-107.264-10.112-29.610667-49.322667-11.434667-49.322667-11.434667-86.698667-2.645333-107.776-38.997333-107.776-38.997333-55.978667 12.8-89.6-58.368-89.6-58.368-56.832 29.568-83.2-20.821333-83.2-20.821333 8.789333 115.2-64.298667 147.285333-64.298666 147.285333s-14.677333 145.834667 101.717333 183.466667c7.765333 11.648 48.554667 78.677333-25.6 93.482666-159.232 27.690667-153.088-60.672-143.829333-146.901333 3.2-29.866667 6.784-59.349333 4.010666-83.797333-9.685333-85.333333 6.613333-166.4 60.970667-230.869334a429.013333 429.013333 0 0 1 180.736-38.4c70.442667 0 135.509333 15.488 188.245333 41.728 44.714667 53.461333 69.205333 138.581333 61.226667 211.754667-3.456 31.744 0.981333 64.768 2.56 94.421333 2.090667 38.741333-0.725333 71.722667-32.426667 88.618667z" fill="#AF4C09" p-id="3713"></path><path d="M665.088 634.752a135.082667 135.082667 0 0 1-49.877333 70.016c-26.026667 18.816-64 32.298667-119.082667 32.298667a196.736 196.736 0 0 1-60.373333-8.533334c-116.394667-37.333333-101.717333-183.381333-101.717334-183.381333s73.088-32.085333 64.298667-147.285333c0 0 26.368 50.389333 83.2 20.821333 0 0 33.578667 71.168 89.6 58.368 0 0 21.077333 36.352 107.776 38.997333 0 0 39.210667-18.176 49.322667 11.434667 9.898667 28.842667-8.917333 99.712-63.146667 107.264z" fill="#FFDEC7" p-id="3714"></path><path d="M750.933333 395.349333a307.712 307.712 0 0 0-50.816-31.488c-52.608-26.24-117.674667-41.728-188.117333-41.728a429.013333 429.013333 0 0 0-180.864 38.144 310.229333 310.229333 0 0 0-58.282667 35.114667c22.314667-20.992 34.133333-60.501333 44.288-86.784C328.533333 278.997333 376.362667 196.906667 512 196.906667s183.466667 82.090667 194.901333 111.744c9.898667 26.24 21.888 65.664 44.032 86.698666z" fill="#ED8772" p-id="3715"></path><path d="M272.810667 403.968a8.533333 8.533333 0 0 1-5.845334-14.72c17.536-16.512 28.586667-46.933333 37.461334-70.997333 1.621333-4.266667 3.2-8.533333 4.693333-12.8C316.672 285.866667 361.770667 188.373333 512 188.373333S707.328 285.866667 714.88 305.578667c1.536 4.053333 3.114667 8.533333 4.778667 12.8 8.832 24.149333 19.84 54.186667 37.248 70.656a8.533333 8.533333 0 0 1-11.050667 12.8 298.666667 298.666667 0 0 0-49.408-30.592c-53.674667-26.453333-117.461333-40.576-184.448-40.576a420.266667 420.266667 0 0 0-176.810667 37.162666l-0.512 0.256a299.989333 299.989333 0 0 0-56.661333 34.133334 8.533333 8.533333 0 0 1-5.205333 1.749333zM512 313.6c69.589333 0 136.021333 14.762667 192 42.666667 5.418667 2.688 10.709333 5.504 15.914667 8.533333-6.442667-13.568-11.648-27.733333-16.298667-40.533333-1.621333-4.266667-3.157333-8.533333-4.693333-12.8-6.826667-17.749333-48-106.282667-186.922667-106.282667S331.861333 293.973333 325.077333 311.722667c-1.493333 3.882667-3.029333 8.021333-4.608 12.373333a434.517333 434.517333 0 0 1-16.426666 40.533333c7.424-4.266667 15.104-8.149333 22.997333-11.818666l0.469333-0.256A437.674667 437.674667 0 0 1 512 313.6z" fill="#650953" p-id="3716"></path><path d="M494.933333 640.938667a89.6 89.6 0 0 1-20.522666-2.56 4.266667 4.266667 0 0 1 2.090666-8.277334c8.106667 2.048 30.805333 5.290667 38.058667-4.266666a4.266667 4.266667 0 0 1 6.016-0.725334 4.266667 4.266667 0 0 1 0.725333 5.973334c-5.802667 7.808-16.512 9.856-26.368 9.856z" fill="#740E62" p-id="3717"></path><path d="M266.112 683.52a8.533333 8.533333 0 0 1-5.376-1.877333c-49.536-40.32-75.733333-90.026667-75.733333-143.744 0-123.733333 146.688-224.298667 326.997333-224.298667s326.997333 100.608 326.997333 224.298667c0 50.261333-23.552 97.706667-68.266666 137.216a8.533333 8.533333 0 1 1-11.306667-12.8c40.832-36.181333 62.378667-79.232 62.378667-124.458667 0-114.261333-139.050667-207.232-309.930667-207.232s-309.802667 93.013333-309.802667 207.274667c0 48.426667 24.021333 93.525333 69.418667 130.474666a8.533333 8.533333 0 0 1-5.376 15.146667z" fill="#6C0C5B" p-id="3718"></path><path d="M356.778667 835.584c-34.133333 0-59.392-7.893333-76.330667-23.808-34.133333-32.085333-28.117333-88.704-22.186667-143.445333 3.029333-27.904 5.845333-54.229333 3.370667-76.16-10.752-95.189333 10.410667-174.933333 63.018667-237.397334a8.533333 8.533333 0 0 1 13.056 11.008C288.256 424.405333 268.373333 499.925333 278.613333 590.250667c2.688 23.808-0.256 51.2-3.370666 79.914666-5.461333 50.602667-11.136 102.912 16.853333 129.152 20.864 19.541333 58.922667 24.192 116.394667 14.165334 18.389333-3.669333 30.08-11.050667 34.602666-21.930667 6.954667-16.810667-3.498667-42.112-14.592-58.666667a8.533333 8.533333 0 1 1 14.165334-9.514666c6.826667 10.197333 28.202667 45.738667 16.213333 74.709333-6.826667 16.469333-22.741333 27.306667-47.274667 32.170667a323.157333 323.157333 0 0 1-54.826666 5.333333zM648.106667 794.794667a48.426667 48.426667 0 0 1-30.762667-9.258667c-17.792-13.994667-21.333333-41.088-10.410667-82.858667a8.533333 8.533333 0 0 1 16.554667 4.266667c-8.533333 33.536-7.168 56.064 4.266667 65.152 15.317333 12.074667 52.565333 4.266667 99.712-20.949333 32.896-17.536 29.866667-55.466667 26.410666-103.338667-1.792-23.850667-3.669333-48.554667-0.981333-73.088 7.722667-71.210667-16.085333-153.6-59.306667-205.354667a8.533333 8.533333 0 0 1 13.226667-10.965333c45.994667 54.997333 71.381333 142.634667 63.146667 218.154667a387.413333 387.413333 0 0 0 1.066666 69.973333c3.754667 49.834667 7.296 96.896-35.370666 119.68-27.050667 14.592-60.458667 28.586667-87.552 28.586667z" fill="#6C0C5B" p-id="3719"></path><path d="M496.128 745.6c-54.101333 0-96.512-16.512-125.994667-49.109333-53.290667-58.965333-44.970667-148.394667-44.586666-152.192a8.533333 8.533333 0 0 1 5.077333-6.954667c2.688-1.237333 67.370667-31.530667 59.178667-138.794667a8.533333 8.533333 0 0 1 16.085333-4.608c2.304 4.266667 24.192 41.941333 71.68 17.066667a8.533333 8.533333 0 0 1 6.698667-0.554667 8.533333 8.533333 0 0 1 4.992 4.266667c0.298667 0.64 31.402667 64.810667 79.957333 53.717333a8.533333 8.533333 0 0 1 9.301333 4.010667c0 0.256 20.522667 31.786667 98.730667 34.688 6.357333-2.645333 25.6-9.301333 41.344-2.56a32.042667 32.042667 0 0 1 17.706667 19.797333c7.082667 20.821333 1.024 55.082667-14.122667 79.701334-12.586667 20.394667-29.866667 33.408-50.517333 37.845333a145.664 145.664 0 0 1-32.298667 52.906667c-32.298667 33.834667-80.426667 50.773333-143.232 50.773333zM342.229333 550.4c-0.853333 18.304-1.194667 88.405333 40.618667 134.570667 26.154667 28.842667 64.256 43.434667 113.28 43.434666 57.813333 0 101.845333-15.146667 130.773333-45.056a129.749333 129.749333 0 0 0 29.866667-50.816 7.978667 7.978667 0 0 1 0.298667-0.938666 137.429333 137.429333 0 0 0 6.528-40.192 8.533333 8.533333 0 0 1 17.066666-0.64 140.501333 140.501333 0 0 1-3.456 31.829333 66.346667 66.346667 0 0 0 30.421334-27.221333c13.994667-22.784 17.365333-51.2 12.501333-65.237334a14.72 14.72 0 0 0-8.192-9.642666c-9.557333-4.266667-24.533333 0.896-29.525333 3.2a9.728 9.728 0 0 1-3.797334 0.768c-71.850667-2.176-101.461333-27.178667-110.933333-38.144-24.064 3.541333-47.658667-6.016-68.266667-27.861334a153.6 153.6 0 0 1-21.333333-28.714666c-32.810667 13.994667-56.106667 3.669333-70.314667-8.192-1.877333 85.888-49.877333 120.32-65.536 128.853333z" fill="#6C0C5B" p-id="3720"></path><path d="M760.448 411.178667a8.234667 8.234667 0 0 1-4.266667-1.28c-27.178667-16.853333-41.130667-54.954667-52.352-85.333334-1.621333-4.266667-3.157333-8.533333-4.693333-12.8-6.826667-17.749333-47.872-106.282667-186.922667-106.282666S331.904 293.973333 325.077333 311.722667c-1.536 3.968-3.072 8.192-4.693333 12.8-11.221333 30.592-25.173333 68.693333-52.352 85.333333a8.533333 8.533333 0 0 1-9.002667-14.506667c22.186667-13.738667 35.029333-48.768 45.312-76.8 1.664-4.522667 3.242667-8.832 4.778667-12.8C316.672 285.866667 361.770667 188.373333 512 188.373333S707.328 285.866667 714.88 305.621333c1.536 4.010667 3.114667 8.533333 4.778667 12.8 10.282667 28.16 23.125333 63.189333 45.312 76.8a8.533333 8.533333 0 0 1-4.522667 15.786667z" fill="#6C0C5B" p-id="3721"></path><path d="M426.666667 519.978667c-9.258667 0-16.725333 12.117333-16.725334 27.050666a39.168 39.168 0 0 0 3.114667 15.701334l12.544-2.304-6.144 11.008a11.818667 11.818667 0 0 0 7.210667 2.645333c9.216 0 16.725333-12.117333 16.725333-27.050667s-7.552-27.050667-16.725333-27.050666zM565.802667 516.266667c-9.856 0-17.877333 12.8-17.877334 28.928a41.813333 41.813333 0 0 0 3.328 16.768l13.397334-2.432-6.528 11.776a12.8 12.8 0 0 0 7.68 2.816c9.898667 0 17.92-12.8 17.92-28.928s-8.021333-28.928-17.92-28.928zM331.136 516.266667a4.266667 4.266667 0 0 1-2.048-8.021334c54.442667-29.866667 64.896-110.08 65.024-110.933333a4.266667 4.266667 0 1 1 8.533333 1.066667 206.762667 206.762667 0 0 1-12.458666 46.378666c-13.013333 33.152-32.682667 57.685333-56.917334 70.954667a4.266667 4.266667 0 0 1-2.133333 0.554667z" fill="#740E62" p-id="3722"></path><path d="M297.898667 371.669333a4.266667 4.266667 0 0 1-2.474667-0.810666 4.266667 4.266667 0 0 1-1.024-5.930667c0.64-0.938667 68.266667-93.397333 217.6-93.397333h1.450667c77.952 0 132.864 25.301333 165.205333 46.506666 35.157333 23.082667 51.626667 45.909333 52.309333 46.933334a4.266667 4.266667 0 0 1-6.954666 4.949333c-0.64-0.896-65.792-89.6-210.56-89.6H512c-145.066667 0-209.877333 88.917333-210.517333 89.6a4.266667 4.266667 0 0 1-3.584 1.749333z" fill="#6C0C5B" p-id="3723"></path></svg>