<svg t="1604309209025" class="icon" viewBox="0 0 1024 1024" version="1.1" xmlns="http://www.w3.org/2000/svg" p-id="1137" width="200" height="200"><path d="M0 0h1024v1024H0z" fill="#FAECBF" p-id="1138"></path><path d="M397.056 598.570667C354.688 686.933333 240.853333 688.384 260.266667 747.946667c15.488 48.085333 80.725333 10.88 80.725333 10.88l113.450667-88.704V585.386667z" fill="#B78B63" p-id="1139"></path><path d="M294.4 781.056a49.450667 49.450667 0 0 1-17.962667-3.114667 40.832 40.832 0 0 1-24.32-27.349333c-11.989333-37.162667 19.114667-55.808 52.010667-75.52 30.890667-18.56 65.962667-39.594667 85.333333-80.170667a8.533333 8.533333 0 0 1 5.802667-4.650666l57.173333-13.184a8.533333 8.533333 0 0 1 7.253334 1.621333 8.533333 8.533333 0 0 1 3.2 6.698667v84.736a8.533333 8.533333 0 0 1-3.285334 6.741333L346.026667 765.568a6.101333 6.101333 0 0 1-1.024 0.682667c-1.322667 0.725333-26.325333 14.805333-50.602667 14.805333z m108.672-174.933333c-21.973333 42.666667-59.733333 65.408-90.197333 83.712-34.389333 20.608-51.968 32.469333-44.501334 55.466666a24.405333 24.405333 0 0 0 14.250667 16.725334c17.066667 6.570667 43.904-4.949333 53.589333-10.368l109.653334-85.717334v-69.845333z" fill="#6C0C5B" p-id="1140"></path><path d="M626.944 598.570667c42.368 88.448 156.202667 89.813333 137.002667 149.333333-15.488 48.085333-80.725333 10.88-80.725334 10.88l-113.450666-88.704V585.386667z" fill="#B78B63" p-id="1141"></path><path d="M729.6 781.056c-24.448 0-49.450667-14.08-50.773333-14.805333a6.101333 6.101333 0 0 1-1.024-0.682667l-113.450667-88.704a8.533333 8.533333 0 0 1-3.285333-6.741333V585.386667a8.533333 8.533333 0 0 1 3.2-6.698667 8.533333 8.533333 0 0 1 7.253333-1.621333l57.173333 13.184a8.533333 8.533333 0 0 1 5.802667 4.650666c19.413333 40.576 54.485333 61.610667 85.333333 80.170667 32.896 19.712 64 38.4 52.010667 75.52a40.832 40.832 0 0 1-24.32 27.349333 49.450667 49.450667 0 0 1-17.92 3.114667z m-41.813333-29.354667c9.685333 5.376 36.693333 17.066667 53.632 10.325334a24.192 24.192 0 0 0 14.208-16.682667c7.466667-23.168-10.112-35.029333-44.501334-55.466667-30.506667-18.304-68.266667-40.96-90.197333-83.712l-42.666667-9.898666v69.888z" fill="#6C0C5B" p-id="1142"></path><path d="M647.765333 728.106667c0 74.965333-60.8 88.192-135.765333 88.192s-135.765333-13.226667-135.765333-88.192 60.8-183.466667 135.765333-183.466667 135.765333 108.501333 135.765333 183.466667z" fill="#B78B63" p-id="1143"></path><path d="M512 824.832c-71.338667 0-144.298667-11.477333-144.298667-96.725333 0-75.477333 61.952-192 144.298667-192s144.298667 116.394667 144.298667 192c0 85.248-72.96 96.725333-144.298667 96.725333z m0-271.530667c-70.229333 0-127.232 105.770667-127.232 174.933334 0 66.133333 50.858667 79.658667 127.232 79.658666s127.232-13.525333 127.232-79.658666c0-69.162667-57.002667-174.933333-127.232-174.933334z" fill="#6C0C5B" p-id="1144"></path><path d="M596.053333 734.976c0 50.432-37.632 63.744-84.053333 63.744s-84.053333-13.312-84.053333-63.744 37.632-123.264 84.053333-123.264 84.053333 72.832 84.053333 123.264z" fill="#D8B498" p-id="1145"></path><path d="M344.661333 293.930667m-73.173333 0a73.173333 73.173333 0 1 0 146.346667 0 73.173333 73.173333 0 1 0-146.346667 0Z" fill="#B78B63" p-id="1146"></path><path d="M344.661333 375.466667a81.706667 81.706667 0 1 1 81.749334-81.536A81.792 81.792 0 0 1 344.661333 375.466667z m0-146.346667a64.64 64.64 0 1 0 64.682667 64.810667 64.725333 64.725333 0 0 0-64.682667-64.64z" fill="#6C0C5B" p-id="1147"></path><path d="M354.602667 307.242667m-43.818667 0a43.818667 43.818667 0 1 0 87.637333 0 43.818667 43.818667 0 1 0-87.637333 0Z" fill="#D8B498" p-id="1148"></path><path d="M676.138667 293.930667m-73.173334 0a73.173333 73.173333 0 1 0 146.346667 0 73.173333 73.173333 0 1 0-146.346667 0Z" fill="#B78B63" p-id="1149"></path><path d="M676.138667 375.466667a81.706667 81.706667 0 1 1 81.706666-81.706667A81.792 81.792 0 0 1 676.138667 375.466667z m0-146.346667a64.64 64.64 0 1 0 64.64 64.64 64.725333 64.725333 0 0 0-64.64-64.469333z" fill="#6C0C5B" p-id="1150"></path><path d="M666.24 307.242667m-43.818667 0a43.818667 43.818667 0 1 0 87.637334 0 43.818667 43.818667 0 1 0-87.637334 0Z" fill="#D8B498" p-id="1151"></path><path d="M512 250.069333c-118.528 0-214.613333 75.562667-214.613333 214.058667 0 105.472 96.085333 167.936 214.613333 167.936s214.613333-62.464 214.613333-167.936c0-138.496-96.085333-214.058667-214.613333-214.058667z" fill="#B78B63" p-id="1152"></path><path d="M512 640.597333c-131.370667 0-223.146667-72.533333-223.146667-176.469333 0-133.12 89.6-222.592 223.146667-222.592s223.146667 89.6 223.146667 222.592c0 103.893333-91.776 176.469333-223.146667 176.469333z m0-381.994666C454.4 258.602667 402.602667 277.333333 366.08 311.466667c-39.338667 36.693333-60.16 89.6-60.16 152.746666 0 93.866667 84.736 159.402667 206.08 159.402667s206.08-65.578667 206.08-159.402667c0-63.232-20.821333-116.053333-60.16-152.746666-36.522667-34.133333-88.32-52.864-145.92-52.864z" fill="#6C0C5B" p-id="1153"></path><path d="M512 456.533333c-59.264 0-107.306667 28.074667-107.306667 79.530667 0 39.168 48.042667 62.378667 107.306667 62.378667s107.306667-23.210667 107.306667-62.378667c0-51.328-48.042667-79.530667-107.306667-79.530667z" fill="#D8B498" p-id="1154"></path><path d="M512 471.509333a14.72 14.72 0 0 0 15.573333-13.568c0-5.674667-6.997333-6.997333-15.573333-6.997333s-15.573333 1.322667-15.573333 6.997333a14.72 14.72 0 0 0 15.573333 13.568zM450.261333 410.453333c-9.002667 0-16.298667 11.776-16.298666 26.325334a38.016 38.016 0 0 0 3.029333 15.317333l12.245333-2.218667-5.973333 10.709334a11.477333 11.477333 0 0 0 6.997333 2.56c9.002667 0 16.298667-11.776 16.298667-26.368s-7.296-26.325333-16.298667-26.325334zM579.754667 410.453333c-9.002667 0-16.298667 11.776-16.298667 26.325334a38.016 38.016 0 0 0 3.029333 15.317333l12.202667-2.218667-5.930667 10.922667a11.392 11.392 0 0 0 6.997334 2.56c9.002667 0 16.298667-11.776 16.298666-26.368s-7.253333-26.538667-16.298666-26.538667z" fill="#740E62" p-id="1155"></path><path d="M512 551.978667c-18.304 0-34.517333-4.821333-44.373333-13.226667a4.266667 4.266667 0 1 1 5.504-6.528c8.533333 7.125333 22.528 11.221333 38.869333 11.221333s30.464-4.266667 38.869333-11.221333a4.266667 4.266667 0 1 1 5.504 6.528c-9.856 8.405333-26.069333 13.226667-44.373333 13.226667z" fill="#6C0C5B" p-id="1156"></path><path d="M390.528 676.565333c-50.176 0-69.546667 53.077333-69.546667 96.938667s31.146667 61.909333 69.546667 61.909333 69.546667-18.048 69.546667-61.909333-19.370667-96.938667-69.546667-96.938667z" fill="#B78B63" p-id="1157"></path><path d="M390.528 843.946667c-48.896 0-78.08-26.368-78.08-70.442667 0-50.773333 24.448-105.472 78.08-105.472s78.08 54.698667 78.08 105.472c0 44.074667-29.141333 70.442667-78.08 70.442667z m0-158.848c-48.170667 0-61.013333 55.466667-61.013333 88.405333 0 46.421333 38.4 53.376 61.013333 53.376s61.013333-6.954667 61.013333-53.376c0-32.810667-12.842667-88.405333-61.013333-88.405333z" fill="#6C0C5B" p-id="1158"></path><path d="M392.533333 752.725333c-28.288 0.554667-43.52 37.290667-29.866666 46.336 18.56 12.330667 14.933333-4.266667 30.506666-4.266666s12.8 16.256 30.976 3.242666c13.44-9.813333-3.285333-45.866667-31.616-45.312z" fill="#D8B498" p-id="1159"></path><path d="M395.799599 731.301607a10.837333 14.336 9.18 1 0 4.574234-28.30477 10.837333 14.336 9.18 1 0-4.574234 28.30477Z" fill="#D8B498" p-id="1160"></path><path d="M418.090858 747.872677a12.373333 15.274667 21.01 1 0 10.952879-28.518348 12.373333 15.274667 21.01 1 0-10.952879 28.518348Z" fill="#D8B498" p-id="1161"></path><path d="MNaN NaNaNaN NaN NaN 1 0 NaN NaN NaN NaN NaN 1 0 NaN NaNZ" fill="#D8B498" p-id="1162"></path><path d="M347.349307 750.263462a12.672 9.557333 42.14 1 0 12.82488-14.173671 12.672 9.557333 42.14 1 0-12.82488 14.173671Z" fill="#D8B498" p-id="1163"></path><path d="M633.472 676.565333c50.176 0 69.546667 53.077333 69.546667 96.938667s-31.146667 61.909333-69.546667 61.909333-69.546667-18.048-69.546667-61.909333 19.370667-96.938667 69.546667-96.938667z" fill="#B78B63" p-id="1164"></path><path d="M633.472 843.946667c-48.896 0-78.08-26.368-78.08-70.442667 0-50.773333 24.448-105.472 78.08-105.472s78.08 54.698667 78.08 105.472c0 44.074667-29.184 70.442667-78.08 70.442667z m0-158.848c-48.170667 0-61.013333 55.466667-61.013333 88.405333 0 46.421333 38.4 53.376 61.013333 53.376s61.013333-6.954667 61.013333-53.376c0-32.810667-12.842667-88.405333-61.013333-88.405333z" fill="#6C0C5B" p-id="1165"></path><path d="M631.466667 752.725333c28.288 0.554667 43.52 37.290667 29.866666 46.336-18.56 12.330667-14.933333-4.266667-30.506666-4.266666s-12.8 16.256-30.976 3.242666c-13.44-9.813333 3.285333-45.866667 31.616-45.312z" fill="#D8B498" p-id="1166"></path><path d="M615.210868 718.968609a14.336 10.837333 80.82 1 0 21.397058-3.457903 14.336 10.837333 80.82 1 0-21.397058 3.457903Z" fill="#D8B498" p-id="1167"></path><path d="M588.827699 738.115115a15.274667 12.373333 68.99 1 0 23.101455-8.872444 15.274667 12.373333 68.99 1 0-23.101455 8.872444Z" fill="#D8B498" p-id="1168"></path><path d="M648.880376 737.169384a10.837333 14.336 15.78 1 0 7.797188-27.591438 10.837333 14.336 15.78 1 0-7.797188 27.591438Z" fill="#D8B498" p-id="1169"></path><path d="M660.832287 751.570263a9.557333 12.672 47.86 1 0 18.792769-17.004416 9.557333 12.672 47.86 1 0-18.792769 17.004416Z" fill="#D8B498" p-id="1170"></path></svg>