<?xml version="1.0" standalone="no"?><!DOCTYPE svg PUBLIC "-//W3C//DTD SVG 1.1//EN" "http://www.w3.org/Graphics/SVG/1.1/DTD/svg11.dtd"><svg t="1621841304301" class="icon" viewBox="0 0 1024 1024" version="1.1" xmlns="http://www.w3.org/2000/svg" p-id="6499" xmlns:xlink="http://www.w3.org/1999/xlink" width="200" height="200"><defs><style type="text/css"></style></defs><path d="M763.733333 251.733333c4.266667-8.533333 8.533333-17.066667 8.533334-29.866666 0-12.8-4.266667-25.6-17.066667-38.4s-25.6-12.8-38.4-12.8H307.2c-8.533333 0-21.333333 0-29.866667 8.533333-25.6 12.8-29.866667 46.933333-17.066666 72.533333L396.8 469.333333v328.533334c0 12.8 4.266667 25.6 12.8 34.133333 8.533333 12.8 25.6 21.333333 42.666667 21.333333 12.8 0 25.6-4.266667 34.133333-12.8l123.733333-98.133333c12.8-8.533333 21.333333-25.6 21.333334-42.666667V469.333333l132.266666-217.6z m-183.466666 192c-4.266667 8.533333-8.533333 17.066667-8.533334 29.866667v230.4l-119.466666 98.133333V469.333333c0-8.533333-4.266667-21.333333-8.533334-29.866666l-136.533333-213.333334 409.6-4.266666-136.533333 221.866666zM768 631.466667h-85.333333c-12.8 0-21.333333 8.533333-21.333334 21.333333s8.533333 21.333333 21.333334 21.333333h85.333333c12.8 0 21.333333-8.533333 21.333333-21.333333s-8.533333-21.333333-21.333333-21.333333z" fill="#1A1311" p-id="6500"></path><path d="M682.666667 524.8c-12.8 0-21.333333 8.533333-21.333334 21.333333s8.533333 21.333333 21.333334 21.333334h85.333333c12.8 0 21.333333-8.533333 21.333333-21.333334s-8.533333-21.333333-21.333333-21.333333h-85.333333z" fill="#1A1311" p-id="6501"></path></svg>