<?xml version="1.0" standalone="no"?><!DOCTYPE svg PUBLIC "-//W3C//DTD SVG 1.1//EN" "http://www.w3.org/Graphics/SVG/1.1/DTD/svg11.dtd"><svg t="1621841588909" class="icon" viewBox="0 0 1024 1024" version="1.1" xmlns="http://www.w3.org/2000/svg" p-id="3439" xmlns:xlink="http://www.w3.org/1999/xlink" width="200" height="200"><defs><style type="text/css"></style></defs><path d="M559.9744 937.3184c-14.1312 0-28.2112-3.6864-41.1136-11.0592l-125.8496-71.936a71.12704 71.12704 0 0 1-35.7376-61.6448V446.6176L137.3696 267.7248c-30.976-25.1904-42.3424-65.792-28.9792-103.3728C121.7536 126.72 156.2112 102.4 196.096 102.4h607.8976c39.936 0 74.3424 24.32 87.7056 61.9008s1.9968 78.1824-28.9792 103.3728l-219.9552 178.944v407.7056c0 29.8496-15.4112 56.6272-41.2672 71.6288a82.0736 82.0736 0 0 1-41.5232 11.3664zM196.096 163.84c-20.736 0-28.0576 16.128-29.7984 21.0432s-6.2464 22.0672 9.8304 35.1744l226.9184 184.6272a42.20928 42.20928 0 0 1 15.6672 32.9216v355.072c0 3.4304 1.8432 6.6048 4.8128 8.2944l125.8496 71.936c9.6256 5.5296 18.1248 1.792 21.3504-0.0512 3.2256-1.8432 10.6496-7.3728 10.6496-18.4832v-416.768c0-12.8512 5.6832-24.832 15.6672-32.9216l226.9184-184.6272c16.0768-13.056 11.6224-30.208 9.8304-35.1744S824.7296 163.84 803.9936 163.84H196.096z" fill="#6FB1F9" p-id="3440"></path><path d="M889.7536 527.7696h-175.7696c-16.9472 0-30.72-13.7728-30.72-30.72s13.7728-30.72 30.72-30.72h175.7696c16.9472 0 30.72 13.7728 30.72 30.72s-13.7728 30.72-30.72 30.72zM889.7536 652.2368h-175.7696c-16.9472 0-30.72-13.7728-30.72-30.72s13.7728-30.72 30.72-30.72h175.7696c16.9472 0 30.72 13.7728 30.72 30.72s-13.7728 30.72-30.72 30.72zM889.7536 773.6832h-175.7696c-16.9472 0-30.72-13.7728-30.72-30.72s13.7728-30.72 30.72-30.72h175.7696c16.9472 0 30.72 13.7728 30.72 30.72s-13.7728 30.72-30.72 30.72z" fill="#6FB1F9" p-id="3441"></path></svg>