<?xml version="1.0" encoding="UTF-8"?>
<svg width="30px" height="30px" viewBox="0 0 30 30" version="1.1" xmlns="http://www.w3.org/2000/svg" xmlns:xlink="http://www.w3.org/1999/xlink">
    <title>nav_党群档案</title>
    <g id="页面-1" stroke="none" stroke-width="1" fill="none" fill-rule="evenodd">
        <g id="活动详情" transform="translate(-107.000000, -931.000000)" fill-rule="nonzero">
            <g id="nav_党群档案" transform="translate(107.000000, 931.000000)">
                <rect id="矩形" fill="#000000" opacity="0" x="0" y="0" width="30" height="30"></rect>
                <path d="M27.465,11.86125 C25.8640835,6.04588844 20.5243946,2.05578698 14.49375,2.1684375 C28.3621875,8.89875 22.123125,18.4434375 22.123125,18.4434375 L14.0878125,10.31625 L17.1646875,6.9946875 L15.0496875,5.0475 L13.3828125,6.52875 L10.2628125,6.4865625 L3.9590625,12.8775 L7.8028125,16.3265625 L10.1953125,14.0409375 L18.40125,21.935625 C11.4140625,26.46375 5.0671875,19.014375 5.0671875,19.014375 L2.566875,21.170625 L4.4690625,23.371875 L4.1484375,23.81625 C3.7018489,23.726437 3.2385742,23.8428585 2.8875,24.133125 C0.7078125,26.2284375 3.3365625,27.37125 3.3365625,27.37125 C5.8790625,27.9421875 5.7740625,25.318125 5.7740625,25.318125 L6.2428125,24.725625 C15.8165625,29.8471875 21.4790625,25.254375 21.4790625,25.254375 L24.23625,27.815625 L27.9975,24.0909375 L25.539375,21.4453125 C25.51875,21.4453125 28.873125,16.5571875 27.463125,11.8584375" id="路径" fill="#E02020"></path>
            </g>
        </g>
    </g>
</svg>